<svg version="1.1" id="Layer_1" xmlns="http://www.w3.org/2000/svg" xmlns:xlink="http://www.w3.org/1999/xlink" x="0px" y="0px"
	 width="100%" viewBox="0 0 310 243" enable-background="new 0 0 310 243" xml:space="preserve">
<path fill="#EAB308" opacity="1.000000" stroke="none" 
	d="
M1.000001,86.000000 
	C1.000000,85.555557 1.000000,85.111107 1.342507,84.416153 
	C2.106463,83.207436 2.527912,82.249245 3.254827,81.108322 
	C7.111164,77.238434 10.993494,74.534233 16.331413,73.481293 
	C21.046438,72.551208 25.578028,70.309814 29.949543,68.157738 
	C32.728161,66.789825 35.066353,64.527275 38.082764,62.313026 
	C35.910530,58.942253 33.426651,55.331909 31.203417,51.567623 
	C29.086102,47.982666 30.389725,43.035728 33.530941,43.346905 
	C39.208275,43.909317 37.715336,40.071564 38.277718,37.329887 
	C38.430592,36.584606 38.155056,35.618004 38.535107,35.073082 
	C43.154041,28.450415 45.751896,21.696669 41.074009,13.886290 
	C40.592247,13.081920 41.724709,11.310739 42.108147,9.988171 
	C43.395695,10.704251 44.804153,11.273100 45.924294,12.193023 
	C46.570179,12.723456 46.750179,13.821178 47.161839,14.711037 
	C49.470898,12.964546 51.558357,11.385668 53.972446,9.802908 
	C54.843388,9.176921 55.387695,8.554814 55.967522,7.944936 
	C56.003044,7.957164 55.935970,7.915515 56.282085,7.924659 
	C59.866520,6.591310 60.026413,8.764963 59.991150,11.314006 
	C55.646320,16.257097 49.665306,19.601429 48.792702,26.634695 
	C48.670498,27.619675 49.312500,28.699469 49.600758,29.735373 
	C51.819599,28.414778 53.431744,28.789944 53.952156,31.488268 
	C54.504456,34.351971 53.270302,36.112244 50.520279,37.218475 
	C46.216846,38.949581 44.470875,42.411442 45.216579,46.905769 
	C45.794704,50.390099 46.782364,53.806473 47.880699,58.505363 
	C54.877411,53.281082 61.506210,48.356827 68.104805,43.392418 
	C70.863312,41.317074 74.366951,39.679890 76.137878,36.941902 
	C82.969101,26.380312 92.783600,19.350653 103.316475,13.291640 
	C107.697205,10.771634 113.228790,8.011530 117.814240,8.608471 
	C124.853706,9.524878 131.912064,12.532625 138.263535,15.951307 
	C146.881302,20.589830 155.115417,26.077728 163.019562,31.875521 
	C177.131195,42.226570 192.467133,50.881214 205.106491,63.321262 
	C210.887009,69.010620 217.724197,73.907539 224.785538,77.928658 
	C230.834869,81.373466 237.455307,83.687088 243.666840,87.212814 
	C255.627914,94.002045 268.936249,97.812386 283.143921,98.211800 
	C290.762512,98.425987 295.604675,95.282928 299.637177,89.696548 
	C301.322418,87.361961 303.648407,84.938210 304.020813,82.318657 
	C304.886047,76.233330 305.116821,69.991829 304.913330,63.836483 
	C304.631561,55.312836 301.217407,47.814781 295.132751,41.873642 
	C293.635742,40.411930 290.668884,40.047028 288.339386,39.927937 
	C282.757782,39.642590 280.651367,43.406677 278.222717,47.968410 
	C270.558228,62.364529 273.229828,65.725861 281.543640,71.347229 
	C282.632141,72.083199 282.386353,74.792564 282.758545,76.587921 
	C281.330566,76.812614 279.253052,77.752098 278.582703,77.142990 
	C274.934692,73.828270 269.621918,70.625969 268.601440,66.471367 
	C265.865814,55.334431 267.627869,44.248463 277.156464,36.439838 
	C280.301941,33.862125 285.694794,31.444349 289.139252,32.372086 
	C295.553040,34.099579 301.931976,37.463280 305.035950,44.427773 
	C306.083954,46.779171 307.646851,48.901077 309.127197,51.453026 
	C309.853363,51.852119 310.426666,51.926060 311.000000,52.000000 
	C311.000000,64.687561 311.000000,77.375122 310.761230,90.260452 
	C310.016479,90.916779 309.510468,91.375343 308.686829,91.987823 
	C306.636658,94.867447 305.423279,98.199898 303.076630,100.207954 
	C295.254028,106.901863 287.219513,113.389786 278.879608,119.422203 
	C273.774780,123.114639 268.185181,126.346123 262.404785,128.836563 
	C256.620056,131.328873 250.655212,133.303619 243.961380,133.361511 
	C235.667145,133.433273 227.401199,135.225037 219.093719,135.927002 
	C214.517761,136.313660 209.877563,136.112732 205.273697,135.957932 
	C197.426346,135.694061 189.490753,135.882523 181.767044,134.719803 
	C173.900238,133.535522 166.201096,131.104599 158.504868,128.947266 
	C141.258896,124.113007 125.090546,117.226250 111.908813,104.513252 
	C108.690880,101.409767 105.379959,99.189209 99.735077,100.678970 
	C89.712585,103.324059 79.242302,104.251923 69.001396,106.127762 
	C68.156929,106.282448 66.825912,108.472107 67.094650,109.227623 
	C68.505455,113.193916 70.358658,117.002846 71.727516,120.114723 
	C74.834129,118.940620 77.124245,117.853081 79.532768,117.411659 
	C79.881561,117.347725 81.096443,120.337189 81.347717,121.998810 
	C81.516327,123.113838 80.582634,124.356712 80.331879,125.581245 
	C79.557892,129.360931 78.256790,133.171967 78.334480,136.946671 
	C78.408730,140.554276 80.429535,144.091110 80.739845,147.731918 
	C81.184708,152.951477 80.853271,158.237198 80.853271,163.609802 
	C86.512741,162.423676 89.878487,163.998932 88.874458,167.131836 
	C88.183769,169.286987 86.563942,171.331055 84.891449,172.937637 
	C82.800240,174.946411 79.645401,176.029816 78.003387,178.281189 
	C75.607986,181.565567 73.849205,185.417938 72.373634,189.242172 
	C70.684479,193.619980 69.602280,198.231964 67.927795,203.843277 
	C81.574547,194.806091 96.034988,192.577255 110.303764,191.674393 
	C111.458008,186.233429 113.613289,181.250732 113.319977,176.416595 
	C112.635063,165.128342 115.322784,154.692627 119.307571,144.448059 
	C121.634132,138.466644 125.634209,133.945892 132.633484,133.686249 
	C136.535736,133.541489 141.377029,132.604675 144.156906,134.468384 
	C148.259308,137.218750 151.041306,142.042450 154.133072,146.172241 
	C158.796066,152.400726 160.693817,159.604370 162.546494,167.159882 
	C164.713867,175.998795 163.915237,184.685822 164.059662,193.420395 
	C164.150070,198.888809 164.116882,203.778412 169.617386,206.872665 
	C176.303192,210.633682 182.780365,214.768951 189.499649,218.466324 
	C201.337067,224.980042 213.228882,231.293015 226.143005,235.668549 
	C236.785721,239.274521 246.576019,238.665955 256.252960,233.229263 
	C259.162201,231.594818 262.406189,230.457642 265.074463,228.513092 
	C270.972260,224.214951 274.902802,218.353943 278.653015,212.041092 
	C283.332214,204.164383 283.670166,194.890961 276.356750,188.742340 
	C272.816132,185.765656 269.089355,182.474762 264.560577,184.423004 
	C260.188568,186.303802 255.046143,188.635300 255.944244,195.338028 
	C256.427216,198.942642 256.391968,202.616684 256.594696,206.335464 
	C253.347595,207.230469 248.857468,203.920822 247.931107,199.950836 
	C244.808685,186.569412 252.256531,180.260361 259.671692,175.655685 
	C263.348389,173.372528 267.345642,172.098679 271.796570,173.987137 
	C280.926239,177.860718 286.471802,185.112305 288.835846,194.201630 
	C292.137939,206.897339 287.254059,218.361374 280.485870,228.735977 
	C277.245331,233.703278 272.218872,237.505493 267.660767,242.009460 
	C267.213501,242.789017 267.106750,243.394516 267.000000,244.000000 
	C249.645767,244.000000 232.291550,244.000000 214.741776,243.680878 
	C213.362686,242.852859 212.179123,242.343964 210.830017,241.535431 
	C209.246552,240.458557 207.839340,239.661026 206.409149,238.907104 
	C189.522858,230.005676 172.427185,221.475967 155.806702,212.103470 
	C141.426178,203.994080 126.090294,200.569427 109.854736,199.987503 
	C100.853745,199.664886 92.655769,202.266312 85.397919,207.316132 
	C74.470871,214.918945 63.225876,222.256531 53.346516,231.083969 
	C49.082314,234.894135 45.649887,239.326065 39.618908,241.110596 
	C38.213917,241.039551 37.190071,241.021072 36.040646,240.718796 
	C33.804478,236.475098 36.141579,234.704910 39.280472,232.951630 
	C42.034145,231.413528 45.399502,229.900146 46.915894,227.413193 
	C51.949493,219.157913 56.272995,210.469482 60.864689,201.944946 
	C63.568241,196.925781 64.000534,192.242416 60.032688,187.382736 
	C56.752132,183.364838 57.140690,177.245316 60.393253,173.353424 
	C61.090614,172.518997 62.774139,171.807785 63.729031,172.063644 
	C64.974144,172.397278 66.564041,173.564911 66.908302,174.705017 
	C67.659767,177.193695 67.717987,179.891693 68.059441,182.504181 
	C68.560341,182.552399 69.061234,182.600616 69.562134,182.648834 
	C71.307869,174.546570 73.256966,166.478394 74.625237,158.312881 
	C74.894104,156.708298 74.320076,154.170227 71.169724,153.371460 
	C68.883911,152.791901 66.170052,150.550873 65.310349,148.389175 
	C63.483463,143.795547 65.886032,141.133255 71.215050,141.339355 
	C70.379654,137.288483 69.896088,133.678513 68.838715,130.245285 
	C68.089233,127.811790 65.343513,125.450928 65.629593,123.349007 
	C66.309174,118.355881 62.912945,117.220848 59.907516,115.453224 
	C57.042343,113.768074 54.493835,110.054390 50.547291,113.749466 
	C50.458599,113.832520 48.089783,112.268715 48.154552,111.607262 
	C48.944897,103.536057 42.344547,103.559509 37.558956,102.073357 
	C31.089621,100.064316 24.170637,99.323059 17.922564,96.836700 
	C12.596420,94.717216 7.945740,90.900345 2.878294,87.540237 
	C2.173562,86.830742 1.586782,86.415367 1.000001,86.000000 
M215.044113,122.033005 
	C200.532730,122.345436 186.021042,122.645676 171.511292,123.020866 
	C171.002655,123.034019 170.513321,123.792801 170.159302,124.919144 
	C172.929916,125.963905 175.650574,127.175842 178.480743,128.021255 
	C186.158508,130.314743 193.898346,131.944977 201.996902,130.145660 
	C204.064972,129.686188 206.308029,129.927200 208.467255,129.981766 
	C214.597687,130.136673 220.771988,130.911728 226.843155,130.407928 
	C233.222168,129.878586 239.531464,128.285736 245.814606,126.900772 
	C250.162811,125.942314 254.415009,124.548271 258.710114,123.348869 
	C258.599854,122.887726 258.489624,122.426582 258.379364,121.965439 
	C250.955276,121.965439 243.531174,121.965439 235.598709,121.263336 
	C229.055038,121.567413 222.511383,121.871498 215.044113,122.033005 
M60.006813,78.975731 
	C60.006813,78.975731 60.033348,78.918434 60.446793,79.674400 
	C74.197342,79.779625 87.947891,79.915031 101.698402,79.910316 
	C102.471710,79.910049 103.244621,78.756294 104.796051,78.334190 
	C108.937668,78.510010 113.079292,78.685829 118.112854,78.970490 
	C124.176750,78.983154 130.243713,79.100410 136.302048,78.923195 
	C137.564636,78.886261 138.795364,77.760269 140.863708,77.061142 
	C143.937943,77.323120 147.012177,77.585106 151.006256,77.941101 
	C157.810028,77.968079 164.615524,78.096352 171.416870,77.980423 
	C174.957565,77.920074 178.490936,77.428978 182.942825,77.027466 
	C191.820404,77.027466 200.697968,77.027466 209.575546,77.027466 
	C206.765701,73.226562 203.909760,70.827782 200.948730,68.566650 
	C200.391434,68.141083 199.402802,68.101616 198.633942,68.159546 
	C190.960083,68.737663 183.300247,69.686249 175.617706,69.923515 
	C162.466949,70.329689 149.299622,70.171417 136.145020,70.488663 
	C120.929436,70.855621 105.721649,71.535980 90.507240,71.965469 
	C84.518852,72.134521 78.507294,71.733864 72.532578,72.065811 
	C66.503601,72.400772 60.489178,73.197479 54.507339,74.061592 
	C52.669533,74.327080 50.505306,75.211708 52.490662,78.698624 
	C55.003960,78.774918 57.517262,78.851212 60.006813,78.975731 
M116.356056,99.032997 
	C114.250465,99.038551 113.071075,100.098854 115.166611,101.456955 
	C118.097984,103.356758 121.475830,105.642807 124.733162,105.757271 
	C133.522812,106.066132 142.349777,105.313316 152.051041,104.998344 
	C159.416702,104.666069 166.779449,104.205971 174.148849,104.037712 
	C181.414001,103.871826 188.686890,104.063980 195.954071,103.951134 
	C197.494324,103.927216 199.024643,103.262993 201.096954,103.443642 
	C206.718781,103.576408 212.340607,103.709167 218.889740,103.963020 
	C232.399200,103.523064 245.908646,103.083099 259.418121,102.643143 
	C259.428436,102.248283 259.438751,101.853424 259.449066,101.458557 
	C258.275116,101.024063 257.101135,100.589561 255.256027,99.775238 
	C250.192963,98.836159 245.793198,96.172028 240.034012,96.741035 
	C228.046204,97.925453 215.916626,97.709686 203.843399,97.986496 
	C187.283020,98.366188 170.720840,98.668945 153.643112,98.474770 
	C151.688232,98.649765 149.734665,98.958374 147.778275,98.977386 
	C137.547180,99.076775 127.315376,99.102684 116.356056,99.032997 
M125.849091,24.213552 
	C129.433243,23.984016 133.017395,23.754478 136.601562,23.524942 
	C124.931137,17.395367 113.448151,13.975206 102.052269,24.019768 
	C103.212334,24.354240 104.059708,24.598560 105.851189,24.954777 
	C112.286652,24.633938 118.722107,24.313099 125.849091,24.213552 
M137.484421,46.153507 
	C130.896133,46.089241 124.307465,45.974018 117.720024,46.022980 
	C116.863609,46.029346 116.013481,46.881802 114.492577,47.871429 
	C104.781006,47.908398 95.051949,47.613735 85.365364,48.124531 
	C80.637978,48.373817 75.989769,50.124352 70.616440,51.085060 
	C70.438248,51.700619 70.260056,52.316181 70.081863,52.931736 
	C74.888611,52.563766 79.695358,52.195793 84.415993,51.902115 
	C84.415993,51.902115 84.465332,51.799641 84.992577,52.301636 
	C86.324982,52.149616 87.657387,51.997601 89.815376,51.987350 
	C96.736801,51.673935 103.659470,51.385216 110.579231,51.038639 
	C115.396500,50.797367 120.209793,50.476685 125.599022,50.798950 
	C134.070618,50.581680 142.542206,50.364410 151.943130,50.039165 
	C158.932587,49.875599 165.922043,49.712029 172.911514,49.548462 
	C173.017792,48.758293 173.124069,47.968124 173.230331,47.177959 
	C171.500717,46.504768 169.771103,45.831577 167.114243,44.972195 
	C160.834534,44.961891 154.551758,44.844425 148.277435,45.023041 
	C146.859482,45.063404 145.470871,46.133934 143.347351,46.743866 
	C141.564178,46.773937 139.780991,46.804008 137.484421,46.153507 
M87.792862,40.342197 
	C100.896667,40.123886 114.000473,39.905579 127.922234,39.782085 
	C135.033752,39.494686 142.157028,39.366360 149.251083,38.842388 
	C152.130219,38.629734 154.945740,37.555664 157.790207,36.873554 
	C155.112854,35.113659 152.448746,33.332867 149.743103,31.617601 
	C149.360748,31.375204 148.773727,31.378113 148.285034,31.392164 
	C130.120712,31.914307 111.958290,32.511627 93.791985,32.948551 
	C88.453934,33.076931 86.512085,37.342003 83.693588,40.830540 
	C84.837204,40.541904 85.980827,40.253273 87.792862,40.342197 
M57.205715,63.046135 
	C55.768402,66.467834 58.338837,66.006020 60.166214,65.961975 
	C72.129639,65.673615 84.091965,65.332916 96.052238,64.936729 
	C96.770889,64.912933 97.468849,64.264343 98.861107,63.987862 
	C99.546249,63.940681 100.231384,63.893505 101.675156,64.220741 
	C106.198463,64.143356 110.721588,64.015274 115.245117,63.999084 
	C124.863632,63.964668 134.482880,64.039589 144.100510,63.940739 
	C145.811279,63.923153 147.515640,63.282921 150.127716,62.992928 
	C155.691895,62.654015 161.256058,62.315102 167.380295,62.649910 
	C175.336700,62.902008 183.346283,63.996937 191.906586,61.671253 
	C190.401321,60.723522 189.702164,60.283329 188.703690,59.199482 
	C185.917038,58.131420 183.111252,56.096825 180.346817,56.151524 
	C161.852173,56.517483 143.368225,57.389797 124.876656,57.963326 
	C118.066292,58.174553 111.236900,57.818466 104.429787,58.078056 
	C91.230934,58.581398 78.033249,59.212368 64.856361,60.104744 
	C62.492798,60.264812 60.231621,61.936687 57.205715,63.046135 
M163.547592,116.805496 
	C174.443619,116.804413 185.339630,116.803337 197.043976,116.789757 
	C205.535828,116.302246 214.022522,115.675964 222.520752,115.360214 
	C234.816208,114.903381 247.119781,114.662399 259.420380,114.347748 
	C264.502350,114.217743 269.610382,114.389359 274.654816,113.895203 
	C276.446533,113.719688 278.084839,111.978203 279.758240,110.972610 
	C267.285767,110.972610 255.372345,110.987656 243.459000,110.959167 
	C241.232239,110.953842 239.000092,110.617256 236.780273,110.699341 
	C217.211853,111.422951 197.650421,112.384293 178.077103,112.908951 
	C165.438721,113.247726 152.783875,112.961754 140.136475,112.988625 
	C138.791946,112.991486 137.447876,113.215317 136.103592,113.336632 
	C139.237457,115.907227 142.473221,117.592209 145.759399,119.172340 
	C146.172958,119.371201 146.859787,119.050186 147.406540,118.915413 
	C150.184341,118.230690 152.931900,117.386383 155.740494,116.874893 
	C158.126053,116.440430 160.580200,116.382683 163.547592,116.805496 
M188.981415,84.097626 
	C175.446060,84.051079 161.908417,83.847832 148.376663,84.046722 
	C143.905533,84.112427 139.449661,85.215324 134.158295,85.957245 
	C132.768219,85.912231 131.378159,85.867218 129.469803,85.148590 
	C121.254402,85.103096 113.038895,85.031509 104.823853,85.067329 
	C104.239204,85.069870 103.657997,85.860840 103.170471,87.027199 
	C103.366966,91.524521 105.517799,93.262596 110.168159,93.003632 
	C120.679932,92.418274 131.218430,92.328140 141.742310,91.936211 
	C145.166977,91.808670 148.580032,91.369812 152.496597,91.766556 
	C161.029999,91.790894 169.563400,91.815231 178.908585,91.834579 
	C179.839218,91.560051 180.768051,91.053352 181.700745,91.046204 
	C193.606461,90.954979 205.516068,91.081650 217.416794,90.808464 
	C220.991241,90.726425 224.541275,89.581169 228.102509,88.922981 
	C228.112396,88.362167 228.122284,87.801353 228.132172,87.240540 
	C225.276123,85.766907 222.436020,83.077850 219.561127,83.040146 
	C209.651596,82.910164 199.729919,83.705902 188.981415,84.097626 
M86.395027,95.059807 
	C89.589516,92.747200 92.784012,90.434593 95.978500,88.121986 
	C95.755272,87.822433 95.532043,87.522881 95.308815,87.223328 
	C87.103622,87.223328 78.898430,87.223328 70.885010,87.223328 
	C69.619652,90.894127 68.449173,94.289703 66.835304,98.971519 
	C73.668465,97.742874 79.733452,96.652344 86.395027,95.059807 
M49.590912,98.004059 
	C53.396431,98.306290 54.112965,96.647125 52.100677,93.708618 
	C51.188675,92.376831 49.950638,90.977509 48.531525,90.331512 
	C40.016674,86.455505 31.101185,88.446671 22.158089,88.786240 
	C27.161160,91.682610 32.276093,93.970299 37.576115,95.686371 
	C41.167286,96.849129 45.018555,97.208603 49.590912,98.004059 
M36.200371,73.880730 
	C31.925459,75.479782 27.650547,77.078835 23.375635,78.677887 
	C23.577808,79.374969 23.779980,80.072052 23.982153,80.769142 
	C27.138981,80.519180 30.491089,80.844482 33.397835,79.857788 
	C36.316704,78.866974 38.791821,76.568916 41.953110,74.525993 
	C41.828026,70.588943 39.314026,72.192024 36.200371,73.880730 
M60.984074,89.013023 
	C60.430500,88.215340 59.876930,87.417664 59.323357,86.619980 
	C59.735214,87.624763 56.770412,91.666512 60.984074,89.013023 
z"/>
<path fill="#FEFEFE" opacity="1.000000" stroke="none" 
	d="
M268.001282,241.835388 
	C272.218872,237.505493 277.245331,233.703278 280.485870,228.735977 
	C287.254059,218.361374 292.137939,206.897339 288.835846,194.201630 
	C286.471802,185.112305 280.926239,177.860718 271.796570,173.987137 
	C267.345642,172.098679 263.348389,173.372528 259.671692,175.655685 
	C252.256531,180.260361 244.808685,186.569412 247.931107,199.950836 
	C248.857468,203.920822 253.347595,207.230469 256.594696,206.335464 
	C256.391968,202.616684 256.427216,198.942642 255.944244,195.338028 
	C255.046143,188.635300 260.188568,186.303802 264.560577,184.423004 
	C269.089355,182.474762 272.816132,185.765656 276.356750,188.742340 
	C283.670166,194.890961 283.332214,204.164383 278.653015,212.041092 
	C274.902802,218.353943 270.972260,224.214951 265.074463,228.513092 
	C262.406189,230.457642 259.162201,231.594818 256.252960,233.229263 
	C246.576019,238.665955 236.785721,239.274521 226.143005,235.668549 
	C213.228882,231.293015 201.337067,224.980042 189.499649,218.466324 
	C182.780365,214.768951 176.303192,210.633682 169.617386,206.872665 
	C164.116882,203.778412 164.150070,198.888809 164.059662,193.420395 
	C163.915237,184.685822 164.713867,175.998795 162.546494,167.159882 
	C160.693817,159.604370 158.796066,152.400726 154.133072,146.172241 
	C151.041306,142.042450 148.259308,137.218750 144.156906,134.468384 
	C141.377029,132.604675 136.535736,133.541489 132.633484,133.686249 
	C125.634209,133.945892 121.634132,138.466644 119.307571,144.448059 
	C115.322784,154.692627 112.635063,165.128342 113.319977,176.416595 
	C113.613289,181.250732 111.458008,186.233429 110.303764,191.674393 
	C96.034988,192.577255 81.574547,194.806091 67.927795,203.843277 
	C69.602280,198.231964 70.684479,193.619980 72.373634,189.242172 
	C73.849205,185.417938 75.607986,181.565567 78.003387,178.281189 
	C79.645401,176.029816 82.800240,174.946411 84.891449,172.937637 
	C86.563942,171.331055 88.183769,169.286987 88.874458,167.131836 
	C89.878487,163.998932 86.512741,162.423676 80.853271,163.609802 
	C80.853271,158.237198 81.184708,152.951477 80.739845,147.731918 
	C80.429535,144.091110 78.408730,140.554276 78.334480,136.946671 
	C78.256790,133.171967 79.557892,129.360931 80.331879,125.581245 
	C80.582634,124.356712 81.516327,123.113838 81.347717,121.998810 
	C81.096443,120.337189 79.881561,117.347725 79.532768,117.411659 
	C77.124245,117.853081 74.834129,118.940620 71.727516,120.114723 
	C70.358658,117.002846 68.505455,113.193916 67.094650,109.227623 
	C66.825912,108.472107 68.156929,106.282448 69.001396,106.127762 
	C79.242302,104.251923 89.712585,103.324059 99.735077,100.678970 
	C105.379959,99.189209 108.690880,101.409767 111.908813,104.513252 
	C125.090546,117.226250 141.258896,124.113007 158.504868,128.947266 
	C166.201096,131.104599 173.900238,133.535522 181.767044,134.719803 
	C189.490753,135.882523 197.426346,135.694061 205.273697,135.957932 
	C209.877563,136.112732 214.517761,136.313660 219.093719,135.927002 
	C227.401199,135.225037 235.667145,133.433273 243.961380,133.361511 
	C250.655212,133.303619 256.620056,131.328873 262.404785,128.836563 
	C268.185181,126.346123 273.774780,123.114639 278.879608,119.422203 
	C287.219513,113.389786 295.254028,106.901863 303.076630,100.207954 
	C305.423279,98.199898 306.636658,94.867447 309.053619,92.150955 
	C310.158661,92.106781 310.579346,92.053391 311.000000,92.000000 
	C311.000000,141.687561 311.000000,191.375122 310.616821,241.184540 
	C309.641357,241.535828 309.048889,241.965820 308.456879,241.965179 
	C294.971649,241.950348 281.486481,241.888474 268.001282,241.835388 
z"/>
<path fill="#FEFDFD" opacity="1.000000" stroke="none" 
	d="
M308.974396,51.127876 
	C307.646851,48.901077 306.083954,46.779171 305.035950,44.427773 
	C301.931976,37.463280 295.553040,34.099579 289.139252,32.372086 
	C285.694794,31.444349 280.301941,33.862125 277.156464,36.439838 
	C267.627869,44.248463 265.865814,55.334431 268.601440,66.471367 
	C269.621918,70.625969 274.934692,73.828270 278.582703,77.142990 
	C279.253052,77.752098 281.330566,76.812614 282.758545,76.587921 
	C282.386353,74.792564 282.632141,72.083199 281.543640,71.347229 
	C273.229828,65.725861 270.558228,62.364529 278.222717,47.968410 
	C280.651367,43.406677 282.757782,39.642590 288.339386,39.927937 
	C290.668884,40.047028 293.635742,40.411930 295.132751,41.873642 
	C301.217407,47.814781 304.631561,55.312836 304.913330,63.836483 
	C305.116821,69.991829 304.886047,76.233330 304.020813,82.318657 
	C303.648407,84.938210 301.322418,87.361961 299.637177,89.696548 
	C295.604675,95.282928 290.762512,98.425987 283.143921,98.211800 
	C268.936249,97.812386 255.627914,94.002045 243.666840,87.212814 
	C237.455307,83.687088 230.834869,81.373466 224.785538,77.928658 
	C217.724197,73.907539 210.887009,69.010620 205.106491,63.321262 
	C192.467133,50.881214 177.131195,42.226570 163.019562,31.875521 
	C155.115417,26.077728 146.881302,20.589830 138.263535,15.951307 
	C131.912064,12.532625 124.853706,9.524878 117.814240,8.608471 
	C113.228790,8.011530 107.697205,10.771634 103.316475,13.291640 
	C92.783600,19.350653 82.969101,26.380312 76.137878,36.941902 
	C74.366951,39.679890 70.863312,41.317074 68.104805,43.392418 
	C61.506210,48.356827 54.877411,53.281082 47.880699,58.505363 
	C46.782364,53.806473 45.794704,50.390099 45.216579,46.905769 
	C44.470875,42.411442 46.216846,38.949581 50.520279,37.218475 
	C53.270302,36.112244 54.504456,34.351971 53.952156,31.488268 
	C53.431744,28.789944 51.819599,28.414778 49.600758,29.735373 
	C49.312500,28.699469 48.670498,27.619675 48.792702,26.634695 
	C49.665306,19.601429 55.646320,16.257097 60.309090,11.260103 
	C61.523693,8.632956 62.279892,6.372633 63.499748,4.058678 
	C142.567184,4.002317 221.170959,3.985821 299.774689,4.039468 
	C303.516663,4.042022 307.258240,4.665620 311.000000,5.000000 
	C311.000000,20.020895 311.000000,35.041790 310.712585,50.242546 
	C309.941559,50.657566 309.457977,50.892723 308.974396,51.127876 
z"/>
<path fill="#FEFEFE" opacity="1.000000" stroke="none" 
	d="
M2.996250,87.834366 
	C7.945740,90.900345 12.596420,94.717216 17.922564,96.836700 
	C24.170637,99.323059 31.089621,100.064316 37.558956,102.073357 
	C42.344547,103.559509 48.944897,103.536057 48.154552,111.607262 
	C48.089783,112.268715 50.458599,113.832520 50.547291,113.749466 
	C54.493835,110.054390 57.042343,113.768074 59.907516,115.453224 
	C62.912945,117.220848 66.309174,118.355881 65.629593,123.349007 
	C65.343513,125.450928 68.089233,127.811790 68.838715,130.245285 
	C69.896088,133.678513 70.379654,137.288483 71.215050,141.339355 
	C65.886032,141.133255 63.483463,143.795547 65.310349,148.389175 
	C66.170052,150.550873 68.883911,152.791901 71.169724,153.371460 
	C74.320076,154.170227 74.894104,156.708298 74.625237,158.312881 
	C73.256966,166.478394 71.307869,174.546570 69.562134,182.648834 
	C69.061234,182.600616 68.560341,182.552399 68.059441,182.504181 
	C67.717987,179.891693 67.659767,177.193695 66.908302,174.705017 
	C66.564041,173.564911 64.974144,172.397278 63.729031,172.063644 
	C62.774139,171.807785 61.090614,172.518997 60.393253,173.353424 
	C57.140690,177.245316 56.752132,183.364838 60.032688,187.382736 
	C64.000534,192.242416 63.568241,196.925781 60.864689,201.944946 
	C56.272995,210.469482 51.949493,219.157913 46.915894,227.413193 
	C45.399502,229.900146 42.034145,231.413528 39.280472,232.951630 
	C36.141579,234.704910 33.804478,236.475098 35.818382,241.108307 
	C24.147799,241.854401 12.573899,241.927200 1.000000,242.000000 
	C1.000000,190.979111 1.000000,139.958206 1.284935,88.756577 
	C2.045331,88.328674 2.520792,88.081520 2.996250,87.834366 
z"/>
<path fill="#FEFEFD" opacity="1.000000" stroke="none" 
	d="
M53.645813,9.806789 
	C51.558357,11.385668 49.470898,12.964546 47.161839,14.711037 
	C46.750179,13.821178 46.570179,12.723456 45.924294,12.193023 
	C44.804153,11.273100 43.395695,10.704251 42.108147,9.988171 
	C41.724709,11.310739 40.592247,13.081920 41.074009,13.886290 
	C45.751896,21.696669 43.154041,28.450415 38.535107,35.073082 
	C38.155056,35.618004 38.430592,36.584606 38.277718,37.329887 
	C37.715336,40.071564 39.208275,43.909317 33.530941,43.346905 
	C30.389725,43.035728 29.086102,47.982666 31.203417,51.567623 
	C33.426651,55.331909 35.910530,58.942253 38.082764,62.313026 
	C35.066353,64.527275 32.728161,66.789825 29.949543,68.157738 
	C25.578028,70.309814 21.046438,72.551208 16.331413,73.481293 
	C10.993494,74.534233 7.111164,77.238434 2.918038,80.891258 
	C1.850520,80.904602 1.425260,80.952301 1.000000,81.000000 
	C1.000000,55.979103 1.000000,30.958210 1.365788,5.771669 
	C3.542548,5.069734 5.349215,4.084717 7.165164,4.067297 
	C23.439886,3.911170 39.716240,3.925324 56.017109,4.292793 
	C56.006725,5.769289 55.971348,6.842402 55.935970,7.915515 
	C55.935970,7.915515 56.003044,7.957164 55.637947,7.905287 
	C54.730503,8.504536 54.188160,9.155663 53.645813,9.806789 
z"/>
<path fill="#000000" opacity="1.000000" stroke="none" 
	d="
M311.000000,4.500000 
	C307.258240,4.665620 303.516663,4.042022 299.774689,4.039468 
	C221.170959,3.985821 142.567184,4.002317 63.156700,3.870850 
	C62.233330,2.824436 62.116665,1.912218 62.000000,1.000000 
	C143.666672,1.000000 225.333328,0.998097 307.000000,1.011104 
	C309.016968,1.011426 311.928955,-0.016389 311.000000,4.500000 
z"/>
<path fill="#000000" opacity="1.000000" stroke="none" 
	d="
M0.999999,242.500000 
	C12.573899,241.927200 24.147799,241.854401 35.943962,241.392120 
	C37.190071,241.021072 38.213917,241.039551 39.840408,241.480103 
	C80.839584,241.934784 121.236122,241.986649 161.632660,241.990631 
	C178.086960,241.992264 194.541275,241.890030 210.995575,241.835052 
	C212.179123,242.343964 213.362686,242.852859 214.273117,243.680878 
	C144.495728,244.000000 74.991440,244.006256 5.487199,243.958252 
	C3.991244,243.957230 2.495722,243.333344 0.999999,242.500000 
z"/>
<path fill="#000000" opacity="1.000000" stroke="none" 
	d="
M55.992115,3.889408 
	C39.716240,3.925324 23.439886,3.911170 7.165164,4.067297 
	C5.349215,4.084717 3.542548,5.069734 1.365788,5.303012 
	C1.000000,3.676148 1.000000,2.352296 1.000000,1.000000 
	C20.020885,1.000000 39.041786,1.000000 58.807541,1.293335 
	C58.365635,2.354249 57.178875,3.121828 55.992115,3.889408 
z"/>
<path fill="#000000" opacity="1.000000" stroke="none" 
	d="
M267.660767,242.009460 
	C281.486481,241.888474 294.971649,241.950348 308.456879,241.965179 
	C309.048889,241.965820 309.641357,241.535828 310.616821,241.653198 
	C311.608826,245.017609 309.319305,243.963196 308.047943,243.968109 
	C294.677887,244.019669 281.307556,244.000000 267.468658,244.000000 
	C267.106750,243.394516 267.213501,242.789017 267.660767,242.009460 
z"/>
<path fill="#BBB4AC" opacity="1.000000" stroke="none" 
	d="
M56.017109,4.292792 
	C57.178875,3.121828 58.365635,2.354249 59.276199,1.293335 
	C59.750000,1.000000 60.500000,1.000000 61.625000,1.000000 
	C62.116665,1.912218 62.233330,2.824436 62.693039,3.924482 
	C62.279892,6.372633 61.523693,8.632956 60.449558,10.947181 
	C60.026413,8.764963 59.866520,6.591310 56.282085,7.924659 
	C55.971348,6.842402 56.006725,5.769289 56.017109,4.292792 
z"/>
<path fill="#91908E" opacity="1.000000" stroke="none" 
	d="
M1.000000,81.375000 
	C1.425260,80.952301 1.850520,80.904602 2.612570,81.073975 
	C2.527912,82.249245 2.106463,83.207436 1.342507,84.082817 
	C1.000000,83.250000 1.000000,82.500000 1.000000,81.375000 
z"/>
<path fill="#000000" opacity="1.000000" stroke="none" 
	d="
M2.878296,87.540237 
	C2.520792,88.081520 2.045331,88.328674 1.284935,88.287918 
	C1.000000,87.555557 1.000000,87.111107 1.000001,86.333328 
	C1.586782,86.415367 2.173562,86.830742 2.878296,87.540237 
z"/>
<path fill="#000000" opacity="1.000000" stroke="none" 
	d="
M311.000000,91.750000 
	C310.579346,92.053391 310.158661,92.106781 309.371216,91.997040 
	C309.510468,91.375343 310.016479,90.916779 310.761230,90.729111 
	C311.000000,91.000000 311.000000,91.500000 311.000000,91.750000 
z"/>
<path fill="#000000" opacity="1.000000" stroke="none" 
	d="
M309.127197,51.453030 
	C309.457977,50.892723 309.941559,50.657566 310.712585,50.711205 
	C311.000000,51.000000 311.000000,51.500000 311.000000,51.750000 
	C310.426666,51.926060 309.853363,51.852119 309.127197,51.453030 
z"/>
<path fill="#FFFFFF" opacity="1.000000" stroke="none" 
	d="
M210.830017,241.535431 
	C194.541275,241.890030 178.086960,241.992264 161.632660,241.990631 
	C121.236122,241.986649 80.839584,241.934784 40.221550,241.532684 
	C45.649887,239.326065 49.082314,234.894135 53.346516,231.083969 
	C63.225876,222.256531 74.470871,214.918945 85.397919,207.316132 
	C92.655769,202.266312 100.853745,199.664886 109.854736,199.987503 
	C126.090294,200.569427 141.426178,203.994080 155.806702,212.103470 
	C172.427185,221.475967 189.522858,230.005676 206.409149,238.907104 
	C207.839340,239.661026 209.246552,240.458557 210.830017,241.535431 
z"/>
<path fill="#FDFDFC" opacity="1.000000" stroke="none" 
	d="
M150.086411,77.847092 
	C147.012177,77.585106 143.937943,77.323120 139.984589,77.034286 
	C132.962875,77.049217 126.817360,77.003304 120.680336,77.209785 
	C119.509995,77.249161 118.373184,78.285355 117.220909,78.861649 
	C113.079292,78.685829 108.937668,78.510010 103.942047,78.174210 
	C88.736473,78.315620 74.384911,78.617027 60.033348,78.918427 
	C60.033348,78.918434 60.006813,78.975731 59.826660,78.589081 
	C57.146229,78.124985 54.645947,78.047531 52.145668,77.970078 
	C50.505306,75.211708 52.669533,74.327080 54.507339,74.061592 
	C60.489178,73.197479 66.503601,72.400772 72.532578,72.065811 
	C78.507294,71.733864 84.518852,72.134521 90.507240,71.965469 
	C105.721649,71.535980 120.929436,70.855621 136.145020,70.488663 
	C149.299622,70.171417 162.466949,70.329689 175.617706,69.923515 
	C183.300247,69.686249 190.960083,68.737663 198.633942,68.159546 
	C199.402802,68.101616 200.391434,68.141083 200.948730,68.566650 
	C203.909760,70.827782 206.765701,73.226562 209.575546,77.027466 
	C200.697968,77.027466 191.820404,77.027466 182.030228,77.008942 
	C173.758255,76.847740 166.397751,76.568237 159.040054,76.628983 
	C156.052368,76.653648 153.070770,77.418839 150.086411,77.847092 
z"/>
<path fill="#F8F7F7" opacity="1.000000" stroke="none" 
	d="
M129.988083,85.822205 
	C131.378159,85.867218 132.768219,85.912231 135.038116,85.975754 
	C148.635834,85.658661 161.354980,85.363159 174.071014,84.968185 
	C179.321716,84.805099 184.565781,84.428513 189.812866,84.149033 
	C199.729919,83.705902 209.651596,82.910164 219.561127,83.040146 
	C222.436020,83.077850 225.276123,85.766907 228.132172,87.240540 
	C228.122284,87.801353 228.112396,88.362167 228.102509,88.922981 
	C224.541275,89.581169 220.991241,90.726425 217.416794,90.808464 
	C205.516068,91.081650 193.606461,90.954979 181.700745,91.046204 
	C180.768051,91.053352 179.839218,91.560051 178.285950,91.453079 
	C169.108337,91.072166 160.553375,91.072762 151.998398,91.073349 
	C148.580032,91.369812 145.166977,91.808670 141.742310,91.936211 
	C131.218430,92.328140 120.679932,92.418274 110.168159,93.003632 
	C105.517799,93.262596 103.366966,91.524521 103.577782,86.553688 
	C112.652756,85.994186 121.320419,85.908195 129.988083,85.822205 
z"/>
<path fill="#FEFEFE" opacity="1.000000" stroke="none" 
	d="
M200.559540,102.893784 
	C199.024643,103.262993 197.494324,103.927216 195.954071,103.951134 
	C188.686890,104.063980 181.414001,103.871826 174.148849,104.037712 
	C166.779449,104.205971 159.416702,104.666069 151.325836,104.651169 
	C142.346558,104.217026 134.064941,104.488152 125.852737,103.856628 
	C122.814110,103.622955 119.938660,101.267242 117.456085,99.928833 
	C128.480164,99.986015 139.037231,100.033630 149.593414,99.956833 
	C151.117645,99.945747 152.637543,99.336891 154.159439,99.004662 
	C170.720840,98.668945 187.283020,98.366188 203.843399,97.986496 
	C215.916626,97.709686 228.046204,97.925453 240.034012,96.741035 
	C245.793198,96.172028 250.192963,98.836159 255.314270,100.266876 
	C243.113892,100.995758 230.854950,101.219772 218.597824,101.517799 
	C218.099243,101.529922 217.617615,102.239662 216.651154,102.553497 
	C210.969315,102.619675 205.764435,102.756729 200.559540,102.893784 
z"/>
<path fill="#F4F4F3" opacity="1.000000" stroke="none" 
	d="
M163.003998,116.158264 
	C160.580200,116.382683 158.126053,116.440430 155.740494,116.874893 
	C152.931900,117.386383 150.184341,118.230690 147.406540,118.915413 
	C146.859787,119.050186 146.172958,119.371201 145.759399,119.172340 
	C142.473221,117.592209 139.237457,115.907227 136.103592,113.336632 
	C137.447876,113.215317 138.791946,112.991486 140.136475,112.988625 
	C152.783875,112.961754 165.438721,113.247726 178.077103,112.908951 
	C197.650421,112.384293 217.211853,111.422951 236.780273,110.699341 
	C239.000092,110.617256 241.232239,110.953842 243.459000,110.959167 
	C255.372345,110.987656 267.285767,110.972610 279.758240,110.972610 
	C278.084839,111.978203 276.446533,113.719688 274.654816,113.895203 
	C269.610382,114.389359 264.502350,114.217743 259.420380,114.347748 
	C247.119781,114.662399 234.816208,114.903381 222.520752,115.360214 
	C214.022522,115.675964 205.535828,116.302246 196.372284,116.443245 
	C184.801743,116.117241 173.902863,116.137756 163.003998,116.158264 
z"/>
<path fill="#FDFDFD" opacity="1.000000" stroke="none" 
	d="
M100.916527,63.846325 
	C100.231384,63.893505 99.546249,63.940681 98.246361,63.599674 
	C87.821098,63.552082 78.012352,64.034279 68.199112,64.156219 
	C64.779488,64.198708 61.348804,63.351460 57.923172,62.910545 
	C60.231621,61.936687 62.492798,60.264812 64.856361,60.104744 
	C78.033249,59.212368 91.230934,58.581398 104.429787,58.078056 
	C111.236900,57.818466 118.066292,58.174553 124.876656,57.963326 
	C143.368225,57.389797 161.852173,56.517483 180.346817,56.151524 
	C183.111252,56.096825 185.917038,58.131420 188.537384,59.693756 
	C181.187469,60.784081 174.003845,61.380135 166.820236,61.976189 
	C161.256058,62.315102 155.691895,62.654015 149.406708,62.601746 
	C139.303467,62.221035 129.915588,62.036922 120.540894,62.308514 
	C113.990089,62.498295 107.457336,63.311546 100.916527,63.846325 
z"/>
<path fill="#F7F5F4" opacity="1.000000" stroke="none" 
	d="
M236.107071,121.965439 
	C243.531174,121.965439 250.955276,121.965439 258.379364,121.965439 
	C258.489624,122.426582 258.599854,122.887726 258.710114,123.348869 
	C254.415009,124.548271 250.162811,125.942314 245.814606,126.900772 
	C239.531464,128.285736 233.222168,129.878586 226.843155,130.407928 
	C220.771988,130.911728 214.597687,130.136673 208.467255,129.981766 
	C206.308029,129.927200 204.064972,129.686188 201.996902,130.145660 
	C193.898346,131.944977 186.158508,130.314743 178.480743,128.021255 
	C175.650574,127.175842 172.929916,125.963905 170.553589,124.510223 
	C185.958191,123.666847 200.968506,123.232384 216.438446,122.862869 
	C223.301071,122.607025 229.704071,122.286232 236.107071,121.965439 
z"/>
<path fill="#FBFAF9" opacity="1.000000" stroke="none" 
	d="
M87.124443,39.964638 
	C85.980827,40.253273 84.837204,40.541904 83.693588,40.830540 
	C86.512085,37.342003 88.453934,33.076931 93.791985,32.948551 
	C111.958290,32.511627 130.120712,31.914307 148.285034,31.392164 
	C148.773727,31.378113 149.360748,31.375204 149.743103,31.617601 
	C152.448746,33.332867 155.112854,35.113659 157.790207,36.873554 
	C154.945740,37.555664 152.130219,38.629734 149.251083,38.842388 
	C142.157028,39.366360 135.033752,39.494686 127.404617,39.371521 
	C125.818268,38.691578 124.742744,38.166214 123.681877,38.194294 
	C116.705811,38.378910 109.730362,38.629967 102.759804,38.965244 
	C97.544052,39.216114 92.335953,39.625713 87.124443,39.964638 
z"/>
<path fill="#F9F8F7" opacity="1.000000" stroke="none" 
	d="
M84.465332,51.799637 
	C84.465332,51.799641 84.415993,51.902115 84.060791,51.669693 
	C79.572296,51.356636 75.439003,51.275997 71.305717,51.195358 
	C75.989769,50.124352 80.637978,48.373817 85.365364,48.124531 
	C95.051949,47.613735 104.781006,47.908398 115.193634,47.527573 
	C123.262398,47.067169 130.630112,46.950623 137.997818,46.834076 
	C139.780991,46.804008 141.564178,46.773937 144.167114,46.786934 
	C152.671753,46.272793 160.356628,45.715588 168.041489,45.158386 
	C169.771103,45.831577 171.500717,46.504768 173.230331,47.177959 
	C173.124069,47.968124 173.017792,48.758293 172.911514,49.548462 
	C165.922043,49.712029 158.932587,49.875599 151.011780,50.023216 
	C141.728561,50.068668 133.376709,50.130074 125.024857,50.191479 
	C120.209793,50.476685 115.396500,50.797367 110.579231,51.038639 
	C103.659470,51.385216 96.736801,51.673935 89.215530,51.617340 
	C87.232231,51.431435 85.848778,51.615536 84.465332,51.799637 
z"/>
<path fill="#FAF9F9" opacity="1.000000" stroke="none" 
	d="
M86.096733,95.310806 
	C79.733452,96.652344 73.668465,97.742874 66.835304,98.971519 
	C68.449173,94.289703 69.619652,90.894127 70.885010,87.223328 
	C78.898430,87.223328 87.103622,87.223328 95.308815,87.223328 
	C95.532043,87.522881 95.755272,87.822433 95.978500,88.121986 
	C92.784012,90.434593 89.589516,92.747200 86.096733,95.310806 
z"/>
<path fill="#F8F8F7" opacity="1.000000" stroke="none" 
	d="
M49.172203,97.965706 
	C45.018555,97.208603 41.167286,96.849129 37.576115,95.686371 
	C32.276093,93.970299 27.161160,91.682610 22.158089,88.786240 
	C31.101185,88.446671 40.016674,86.455505 48.531525,90.331512 
	C49.950638,90.977509 51.188675,92.376831 52.100677,93.708618 
	C54.112965,96.647125 53.396431,98.306290 49.172203,97.965706 
z"/>
<path fill="#FCFCFC" opacity="1.000000" stroke="none" 
	d="
M104.907089,24.842880 
	C104.059708,24.598560 103.212334,24.354240 102.052269,24.019768 
	C113.448151,13.975206 124.931137,17.395367 136.601562,23.524942 
	C133.017395,23.754478 129.433243,23.984016 125.223373,23.797436 
	C118.034126,23.868507 111.470612,24.355694 104.907089,24.842880 
z"/>
<path fill="#9A9490" opacity="1.000000" stroke="none" 
	d="
M101.295837,64.033531 
	C107.457336,63.311546 113.990089,62.498295 120.540894,62.308514 
	C129.915588,62.036922 139.303467,62.221035 148.954346,62.570385 
	C147.515640,63.282921 145.811279,63.923153 144.100510,63.940739 
	C134.482880,64.039589 124.863632,63.964668 115.245117,63.999084 
	C110.721588,64.015274 106.198463,64.143356 101.295837,64.033531 
z"/>
<path fill="#97928F" opacity="1.000000" stroke="none" 
	d="
M57.564445,62.978340 
	C61.348804,63.351460 64.779488,64.198708 68.199112,64.156219 
	C78.012352,64.034279 87.821098,63.552082 97.904022,63.558983 
	C97.468849,64.264343 96.770889,64.912933 96.052238,64.936729 
	C84.091965,65.332916 72.129639,65.673615 60.166214,65.961975 
	C58.338837,66.006020 55.768402,66.467834 57.564445,62.978340 
z"/>
<path fill="#A5A2A1" opacity="1.000000" stroke="none" 
	d="
M87.458649,40.153419 
	C92.335953,39.625713 97.544052,39.216114 102.759804,38.965244 
	C109.730362,38.629967 116.705811,38.378910 123.681877,38.194294 
	C124.742744,38.166214 125.818268,38.691578 126.995644,39.324112 
	C114.000473,39.905579 100.896667,40.123886 87.458649,40.153419 
z"/>
<path fill="#EDEDEB" opacity="1.000000" stroke="none" 
	d="
M36.551933,73.702347 
	C39.314026,72.192024 41.828026,70.588943 41.953110,74.525993 
	C38.791821,76.568916 36.316704,78.866974 33.397835,79.857788 
	C30.491089,80.844482 27.138981,80.519180 23.982153,80.769142 
	C23.779980,80.072052 23.577808,79.374969 23.375635,78.677887 
	C27.650547,77.078835 31.925459,75.479782 36.551933,73.702347 
z"/>
<path fill="#8F8E8E" opacity="1.000000" stroke="none" 
	d="
M217.128098,102.624382 
	C217.617615,102.239662 218.099243,101.529922 218.597824,101.517799 
	C230.854950,101.219772 243.113892,100.995758 255.649841,100.456787 
	C257.101135,100.589561 258.275116,101.024063 259.449066,101.458557 
	C259.438751,101.853424 259.428436,102.248283 259.418121,102.643143 
	C245.908646,103.083099 232.399200,103.523064 218.357605,103.729362 
	C217.593033,103.205261 217.360565,102.914818 217.128098,102.624382 
z"/>
<path fill="#AAA7A5" opacity="1.000000" stroke="none" 
	d="
M116.988792,99.879326 
	C119.938660,101.267242 122.814110,103.622955 125.852737,103.856628 
	C134.064941,104.488152 142.346558,104.217026 150.881287,104.642899 
	C142.349777,105.313316 133.522812,106.066132 124.733162,105.757271 
	C121.475830,105.642807 118.097984,103.356758 115.166611,101.456955 
	C113.071075,100.098854 114.250465,99.038551 116.701660,99.275505 
	C117.047256,99.518013 116.988792,99.879326 116.988792,99.879326 
z"/>
<path fill="#5A5655" opacity="1.000000" stroke="none" 
	d="
M189.397141,84.123337 
	C184.565781,84.428513 179.321716,84.805099 174.071014,84.968185 
	C161.354980,85.363159 148.635834,85.658661 135.452377,85.919113 
	C139.449661,85.215324 143.905533,84.112427 148.376663,84.046722 
	C161.908417,83.847832 175.446060,84.051079 189.397141,84.123337 
z"/>
<path fill="#888380" opacity="1.000000" stroke="none" 
	d="
M60.240070,79.296417 
	C74.384911,78.617027 88.736473,78.315620 103.552879,78.076813 
	C103.244621,78.756294 102.471710,79.910049 101.698402,79.910316 
	C87.947891,79.915031 74.197342,79.779625 60.240070,79.296417 
z"/>
<path fill="#403D3B" opacity="1.000000" stroke="none" 
	d="
M215.978821,122.797913 
	C200.968506,123.232384 185.958191,123.666847 170.481430,124.152679 
	C170.513321,123.792801 171.002655,123.034019 171.511292,123.020866 
	C186.021042,122.645676 200.532730,122.345436 215.509369,122.259842 
	C215.974625,122.486687 215.978821,122.797913 215.978821,122.797913 
z"/>
<path fill="#827F7E" opacity="1.000000" stroke="none" 
	d="
M167.100266,62.313049 
	C174.003845,61.380135 181.187469,60.784081 188.687042,60.015579 
	C189.702164,60.283329 190.401321,60.723522 191.906586,61.671253 
	C183.346283,63.996937 175.336700,62.902008 167.100266,62.313049 
z"/>
<path fill="#837C7B" opacity="1.000000" stroke="none" 
	d="
M117.666885,78.916061 
	C118.373184,78.285355 119.509995,77.249161 120.680336,77.209785 
	C126.817360,77.003304 132.962875,77.049217 139.573120,77.071808 
	C138.795364,77.760269 137.564636,78.886261 136.302048,78.923195 
	C130.243713,79.100410 124.176750,78.983154 117.666885,78.916061 
z"/>
<path fill="#656261" opacity="1.000000" stroke="none" 
	d="
M163.275787,116.481888 
	C173.902863,116.137756 184.801743,116.117241 195.968140,116.449493 
	C185.339630,116.803337 174.443619,116.804413 163.275787,116.481888 
z"/>
<path fill="#818181" opacity="1.000000" stroke="none" 
	d="
M117.456085,99.928833 
	C116.988792,99.879326 117.047256,99.518013 117.065536,99.336075 
	C127.315376,99.102684 137.547180,99.076775 147.778275,98.977386 
	C149.734665,98.958374 151.688232,98.649765 153.901276,98.739716 
	C152.637543,99.336891 151.117645,99.945747 149.593414,99.956833 
	C139.037231,100.033630 128.480164,99.986015 117.456085,99.928833 
z"/>
<path fill="#655F5C" opacity="1.000000" stroke="none" 
	d="
M150.546326,77.894089 
	C153.070770,77.418839 156.052368,76.653648 159.040054,76.628983 
	C166.397751,76.568237 173.758255,76.847740 181.572632,77.061432 
	C178.490936,77.428978 174.957565,77.920074 171.416870,77.980423 
	C164.615524,78.096352 157.810028,77.968079 150.546326,77.894089 
z"/>
<path fill="#3E3D3D" opacity="1.000000" stroke="none" 
	d="
M167.577866,45.065289 
	C160.356628,45.715588 152.671753,46.272793 144.527832,46.780128 
	C145.470871,46.133934 146.859482,45.063404 148.277435,45.023041 
	C154.551758,44.844425 160.834534,44.961891 167.577866,45.065289 
z"/>
<path fill="#837E7D" opacity="1.000000" stroke="none" 
	d="
M216.651154,102.553497 
	C217.360565,102.914818 217.593033,103.205261 217.893951,103.668816 
	C212.340607,103.709167 206.718781,103.576408 200.828247,103.168709 
	C205.764435,102.756729 210.969315,102.619675 216.651154,102.553497 
z"/>
<path fill="#4E4D4D" opacity="1.000000" stroke="none" 
	d="
M216.438446,122.862869 
	C215.978821,122.797913 215.974625,122.486687 215.971161,122.331131 
	C222.511383,121.871498 229.055038,121.567413 235.852890,121.614395 
	C229.704071,122.286232 223.301071,122.607025 216.438446,122.862869 
z"/>
<path fill="#A39E9C" opacity="1.000000" stroke="none" 
	d="
M105.379135,24.898829 
	C111.470612,24.355694 118.034126,23.868507 124.877609,23.686790 
	C118.722107,24.313099 112.286652,24.633938 105.379135,24.898829 
z"/>
<path fill="#201F1F" opacity="1.000000" stroke="none" 
	d="
M129.728943,85.485397 
	C121.320419,85.908195 112.652756,85.994186 103.530144,86.182693 
	C103.657997,85.860840 104.239204,85.069870 104.823853,85.067329 
	C113.038895,85.031509 121.254402,85.103096 129.728943,85.485397 
z"/>
<path fill="#504C4A" opacity="1.000000" stroke="none" 
	d="
M152.247498,91.419952 
	C160.553375,91.072762 169.108337,91.072166 177.880066,91.455566 
	C169.563400,91.815231 161.029999,91.790894 152.247498,91.419952 
z"/>
<path fill="#5B5656" opacity="1.000000" stroke="none" 
	d="
M125.311935,50.495216 
	C133.376709,50.130074 141.728561,50.068668 150.547104,50.077202 
	C142.542206,50.364410 134.070618,50.581680 125.311935,50.495216 
z"/>
<path fill="#313130" opacity="1.000000" stroke="none" 
	d="
M137.741119,46.493790 
	C130.630112,46.950623 123.262398,47.067169 115.527573,47.263031 
	C116.013481,46.881802 116.863609,46.029346 117.720024,46.022980 
	C124.307465,45.974018 130.896133,46.089241 137.741119,46.493790 
z"/>
<path fill="#706D6C" opacity="1.000000" stroke="none" 
	d="
M70.961075,51.140209 
	C75.439003,51.275997 79.572296,51.356636 84.103844,51.632549 
	C79.695358,52.195793 74.888611,52.563766 70.081863,52.931740 
	C70.260056,52.316181 70.438248,51.700619 70.961075,51.140209 
z"/>
<path fill="#F6F6F6" opacity="1.000000" stroke="none" 
	d="
M60.898888,89.337540 
	C56.770412,91.666512 59.735214,87.624763 59.323357,86.619980 
	C59.876930,87.417664 60.430500,88.215340 60.898888,89.337540 
z"/>
<path fill="#888380" opacity="1.000000" stroke="none" 
	d="
M52.318165,78.334351 
	C54.645947,78.047531 57.146229,78.124985 59.838531,78.564964 
	C57.517262,78.851212 55.003960,78.774918 52.318165,78.334351 
z"/>
<path fill="#706D6C" opacity="1.000000" stroke="none" 
	d="
M84.728958,52.050636 
	C85.848778,51.615536 87.232231,51.431435 88.802734,51.546455 
	C87.657387,51.997601 86.324982,52.149616 84.728958,52.050636 
z"/>
<path fill="#BBB4AC" opacity="1.000000" stroke="none" 
	d="
M53.972446,9.802909 
	C54.188160,9.155663 54.730503,8.504536 55.602425,7.893058 
	C55.387695,8.554814 54.843388,9.176921 53.972446,9.802909 
z"/> <rect width="100%" height="100%"  opacity="0.1"/>
</svg>