<?xml version="1.0" encoding="UTF-8"?>
<svg version="1.1" viewBox="0 0 856 940" width="1280" height="1280" xmlns="http://www.w3.org/2000/svg">
<path transform="translate(0)" d="m0 0h856v940h-856z" fill="#212123"/>
<path transform="translate(0)" d="m0 0h458l20 3 30 4 23 5 16 6 16 9 13 10 8 7 7 8 9 13 8 17 4 16 1 90v115l-2 18-4 15-7 17-9 13-9 10-9 8-14 9-11 5-13 4-10 2-11 1h-202l-21 2-19 5-18 8-12 8-10 8-15 15-12 18-7 14-6 19-2 12-1 106-1 1h-47l-31-1-19-4-13-5-14-8-10-8-8-8-10-14-8-14-8-19-7-24-8-38-5-30z" fill="#f6c262"/>
<path transform="translate(638,214)" d="m0 0h81l16 2 16 6 16 9 13 13 11 16 8 15 7 19 7 25 7 33 5 31 2 23v41l-4 31-6 27-6 20-11 28-9 19-9 14-11 13-13 10-15 7-17 4-28 1h-284l-1 24h199l1 2v50l-1 39-4 16-8 16-9 11-9 10-15 11-16 9-15 7-24 8-32 8-28 5-30 2h-29l-26-3-31-6-29-8-24-9-21-11-11-8-7-6-6-7-5-5-6-7-8-16-4-13-1-6-1-23v-188l1-11 6-18 6-14 10-13 12-13 8-7 14-8 16-6 8-2 10-1 93-1h75l53-1 17-3 21-8 15-8 13-10 10-9 9-10 12-19 7-17 5-16 2-12 1-100z" fill="#f6c262"/>
<path transform="translate(0)" d="m0 0h370v1l-31 4-33 5-21 5-21 7-15 8-10 8-8 8-9 15-5 17-2 16-1 71v22l194 1 5 1v24l-1 1h-237l-48 1-20 3-16 5-16 8-11 7-11 9-9 9-10 13-8 14-6 15-6 20-7 33-6 36h-1z" fill="#f6c262"/>
<path transform="translate(610,96)" d="m0 0 2 2 1 90v115l-2 18-4 15-7 17-9 13-9 10-9 8-14 9-11 5-13 4-10 2h-105l-95-1v-1l37-2 11-1 1-1h7l7-1 29-1 5-1 28-2 4-1 2-5 3-1-5-2h-7l-5-9 1-6 5-7 6-1 4-3 1 1h5l3-7 9-2v-2l5-2 1-6 7-1 3-7 6-1 2-5 1-1h5l3-9 2-4 5-1 1-4v-4l3-4h2l4-10h2v-2l3-3 3-5h3v-2h2l4-8-1-6 1-3 5-5 4-6 3-3h2v-3h2l-2-7-2-4h2l4-9 2-6v-2h2l2-7 5-3 1-5 3-4 9 1 1 5 4 1 1 9h9l1-8 2-5 1-15 1-9 1-20 1-6v-10l1-11v-10l-1-6 1-10z" fill="#f6c262"/>
<path transform="translate(295,61)" d="m0 0h12l11 4 11 8 7 11 3 11v8l-3 11-7 12-9 7-16 5h-8l-12-4-9-6-6-7-5-11-1-6v-10l3-10 6-10 9-8 9-4z" fill="#f6c262"/>
<path transform="translate(522,696)" d="m0 0 12 1 10 4 9 7 6 9 4 12v10l-4 11-5 9-8 8-10 4-4 1h-14l-10-4-6-4-8-8-5-10-1-3v-15l4-12 7-10 9-6 8-3z" fill="#f6c262"/>
<path transform="translate(543,18)" d="m0 0 6 1 14 8 13 10 8 7 7 8 9 13 8 17 1 9-4-1-2-6-1-5-3-4v-4h-2l-4-7v-2h-2l-4-7-6-6v-2l-4-2v-2l-4-2-3-2v-2l-4-1-6-5-5-5-8-5-4-2z" fill="#f6c262"/>
<path transform="translate(28,554)" d="m0 0 3 4 6 12 2 1 3 5 8 10 9 10 14 9 12 6v1l-7-1-14-8-10-8-8-8-10-14-8-14z" fill="#f6c262"/>
<path transform="translate(63,600)" d="m0 0 5 2 10 6 7 3v1l-7-1-14-8z" fill="#f6c262"/>
<path transform="translate(28,554)" d="m0 0 3 4 5 9-1 4-6-10z" fill="#f6c262"/>
<path transform="translate(272,409)" d="m0 0v3l-10 4h-3l1-3 6-2z" fill="#f6c262"/>
<path transform="translate(87,612)" d="m0 0 10 2 2 2h-8l-4-2z" fill="#f6c262"/>
</svg>